<svg width="30" height="30" viewBox="0 0 30 30" fill="none" xmlns="http://www.w3.org/2000/svg">
<rect x="-0.5" y="0.5" width="28.8929" height="29" rx="14.4464" transform="matrix(-1 0 0 1 28.8931 0)" stroke="#9C9C9C"/>
<path d="M12.2597 14.3736L16.3793 10.2592C16.7253 9.9136 17.2875 9.9136 17.6335 10.2592C17.9796 10.6048 17.9796 11.1663 17.6335 11.5119L14.1411 15L17.6335 18.4881C17.9796 18.8337 17.9796 19.3952 17.6335 19.7408C17.4605 19.9136 17.2335 20 17.0064 20C16.7793 20 16.5523 19.9136 16.3793 19.7408L12.2597 15.6264C11.9137 15.2808 11.9137 14.7193 12.2597 14.3737L12.2597 14.3736Z" fill="#9C9C9C"/>
</svg>
