<svg width="83" height="20" viewBox="0 0 83 20" fill="none" xmlns="http://www.w3.org/2000/svg">
<g opacity="0.3" clip-path="url(#clip0_205_13)">
<path fill-rule="evenodd" clip-rule="evenodd" d="M0.231352 14.7486L3.16546 12.5009C4.72377 14.5351 6.37855 15.4725 8.22244 15.4724C10.0561 15.4723 11.6653 14.5455 13.1535 12.5271L16.1283 14.7207C13.9826 17.6307 11.3129 19.1682 8.22268 19.1684C5.14271 19.1686 2.44806 17.6423 0.231352 14.7486Z" fill="white"/>
<path fill-rule="evenodd" clip-rule="evenodd" d="M8.21241 4.98006L2.99022 9.48056L0.577347 6.68075L8.22246 0.0921534L15.809 6.68486L13.3847 9.47473L8.21241 4.98006Z" fill="white"/>
<path d="M36.1571 3.88945L33.2002 3.88965L33.201 16.2099L36.1579 16.2097L36.1571 3.88945Z" fill="white"/>
<path fill-rule="evenodd" clip-rule="evenodd" d="M27.2254 16.2646C25.4823 16.2648 24.0298 15.7 22.8515 14.5703C21.6732 13.4245 21.0921 11.9558 21.092 10.1643C21.0918 8.35668 21.6889 6.8718 22.867 5.70969C24.0613 4.53141 25.5138 3.9503 27.2407 3.95018C29.3711 3.95004 31.2596 4.86985 32.357 6.30621L30.4366 8.32379C29.5165 7.33933 28.5159 6.83908 27.4346 6.83915C26.5146 6.83921 25.7561 7.1459 25.1267 7.77539C24.5134 8.40488 24.2069 9.19575 24.2069 10.148C24.207 11.0679 24.5137 11.8426 25.127 12.472C25.7565 13.0853 26.5151 13.3919 27.4189 13.3918C28.5971 13.3917 29.6299 12.8752 30.4852 11.8583L32.4868 13.7788C31.9382 14.5051 31.1956 15.1023 30.2756 15.5704C29.356 16.0386 28.339 16.2646 27.2254 16.2646Z" fill="white"/>
<path fill-rule="evenodd" clip-rule="evenodd" d="M40.5922 4.87475C40.5923 5.75933 39.8755 6.47646 38.9909 6.47651C38.1062 6.47657 37.3891 5.75955 37.389 4.87497C37.389 3.99042 38.106 3.2733 38.9907 3.27324C39.8753 3.27318 40.5922 3.9902 40.5922 4.87475ZM40.4692 7.2156L37.5124 7.2158L37.513 16.2096L40.4698 16.2094L40.4692 7.2156Z" fill="white"/>
<path fill-rule="evenodd" clip-rule="evenodd" d="M46.1854 16.2795C44.7814 16.2796 43.6515 15.8439 42.7639 14.9724C41.8922 14.1009 41.4562 12.9873 41.4561 11.6155C41.456 10.2436 41.8919 9.12994 42.7794 8.25837C43.6671 7.38678 44.8129 6.95093 46.2332 6.95084C48.0894 6.95071 49.7194 7.8544 50.478 9.54902L48.2024 10.7435C47.7505 9.98497 47.1212 9.59765 46.298 9.5977C45.7009 9.59774 45.2166 9.79146 44.8294 10.1788C44.4581 10.5662 44.2645 11.0504 44.2645 11.6153C44.2646 12.7935 45.12 13.6649 46.2661 13.6649C47.089 13.6648 47.8475 13.2128 48.1704 12.5188L50.4461 13.8744C49.6714 15.3593 48.0738 16.2794 46.1854 16.2795Z" fill="white"/>
<path fill-rule="evenodd" clip-rule="evenodd" d="M54.1448 3.88824L51.188 3.88844L51.1888 16.2087L54.1456 16.2085L54.1454 13.0721L54.4918 12.7489L57.1949 16.2083L60.6346 16.208L56.4815 10.8932L60.4262 7.21426L56.8131 7.2145L54.1452 9.70291L54.1448 3.88824Z" fill="white"/>
<path fill-rule="evenodd" clip-rule="evenodd" d="M61.1678 11.5524L61.1672 3.88777L64.2475 3.88756L64.248 11.3806C64.2481 12.7202 65.0287 13.3657 66.1577 13.3656C67.2702 13.3656 68.0672 12.6877 68.0672 11.3804L68.0667 3.88731L71.1467 3.8871L71.1472 11.5518C71.1474 15.0702 68.6774 16.3938 66.1579 16.394C63.6547 16.3941 61.168 15.0708 61.1678 11.5524Z" fill="white"/>
<path fill-rule="evenodd" clip-rule="evenodd" d="M77.8006 16.4533C80.1821 16.4531 82.1127 14.357 82.1125 11.7713C82.1123 9.18568 80.1815 7.08975 77.8 7.08991C76.8293 7.08997 75.9337 7.43829 75.2128 8.02602L75.2128 7.2133L72.3792 7.21349L72.38 19.9033L75.2136 19.9032L75.2133 15.5175C75.9342 16.1052 76.8299 16.4534 77.8006 16.4533ZM75.2131 11.7766L75.2131 11.7669C75.2156 10.6124 76.1245 9.67727 77.2457 9.67719C78.3686 9.67712 79.2788 10.6148 79.2789 11.7715C79.279 12.9282 78.3689 13.866 77.246 13.8661C76.1248 13.8661 75.2158 12.9311 75.2131 11.7766Z" fill="white"/>
</g>
<defs>
<clipPath id="clip0_205_13">
<rect width="82.3188" height="20" fill="white"/>
</clipPath>
</defs>
</svg>
