<svg width="22" height="14" viewBox="0 0 22 14" fill="none" xmlns="http://www.w3.org/2000/svg">
<path opacity="0.3" d="M19.4963 0.691124H14.0261V2.21242H19.5178L19.4963 0.691124ZM18.3418 11.1567C17.9268 11.4317 17.4368 11.5712 16.9392 11.556C16.6098 11.5903 16.2769 11.5563 15.9613 11.456C15.6457 11.3558 15.3542 11.1914 15.105 10.9733C14.6443 10.451 14.4045 9.77017 14.4361 9.07441H21.5786C21.6301 8.34996 21.5682 7.62192 21.3952 6.91655C21.2278 6.24548 20.9349 5.61216 20.532 5.05C20.1265 4.50471 19.6027 4.05838 19 3.7445C18.3293 3.41385 17.5897 3.24743 16.8421 3.25898C16.139 3.25383 15.4419 3.38957 14.7921 3.65818C14.1971 3.90903 13.658 4.2758 13.2061 4.73711C12.7555 5.20765 12.4066 5.76589 12.1811 6.37709C11.9391 7.03691 11.8185 7.73507 11.8251 8.43784C11.814 9.15059 11.9309 9.85955 12.1703 10.531C12.3737 11.139 12.6965 11.7002 13.1198 12.1817C13.5577 12.6545 14.096 13.0231 14.695 13.2607C15.363 13.5152 16.0734 13.6397 16.7882 13.6275C17.7909 13.6588 18.781 13.3962 19.6365 12.8722C20.5007 12.2582 21.1228 11.3612 21.3952 10.3368H19.0108C18.8831 10.6757 18.6482 10.9636 18.3418 11.1567ZM14.6411 6.71156C14.7251 6.44256 14.8644 6.19414 15.0503 5.98229C15.2361 5.77045 15.4642 5.59988 15.72 5.48158C16.0588 5.32911 16.4276 5.25533 16.7989 5.26579C17.0672 5.24288 17.3372 5.27826 17.5905 5.36952C17.8438 5.46077 18.0743 5.60574 18.2663 5.79447C18.6329 6.24323 18.8682 6.7847 18.946 7.35891H14.4685C14.4859 7.13966 14.5257 6.92275 14.5871 6.71156H14.6411ZM8.93354 6.19367C9.48268 5.965 9.95983 5.59223 10.3146 5.11474C10.6407 4.60765 10.8026 4.01243 10.7785 3.41003C10.7997 2.86068 10.6925 2.31396 10.4656 1.81321C10.275 1.37939 9.96897 1.0062 9.5809 0.734281C9.16945 0.451573 8.70223 0.260267 8.21066 0.173238C7.62892 0.051225 7.03556 -0.00666339 6.44121 0.000608901H0V13.5736H6.58147C7.1821 13.574 7.78034 13.4978 8.36171 13.347C8.91277 13.2044 9.43484 12.9671 9.90458 12.6457C10.3596 12.3303 10.7301 11.9079 10.9835 11.4157C11.2639 10.8652 11.4012 10.253 11.3827 9.63546C11.4031 8.87021 11.1885 8.11709 10.7677 7.4776C10.3152 6.83447 9.64404 6.37808 8.8796 6.19367H8.93354ZM2.98864 2.32031H5.78307C6.03979 2.31999 6.29607 2.34165 6.54911 2.38505C6.7821 2.41957 7.00586 2.50027 7.20725 2.62241C7.40184 2.73248 7.5595 2.89765 7.66041 3.09714C7.78537 3.33636 7.84492 3.60434 7.83303 3.87397C7.85314 4.1062 7.81762 4.33987 7.72944 4.55564C7.64126 4.77141 7.50294 4.96307 7.32594 5.11474C6.93981 5.38019 6.47777 5.51274 6.00964 5.49236H2.98864V2.32031ZM8.21066 10.3476C8.09981 10.5674 7.93218 10.7537 7.72514 10.887C7.50968 11.021 7.27228 11.116 7.02384 11.1675C6.74769 11.2294 6.46521 11.2583 6.18227 11.2539H2.94548V7.53154H6.18227C6.73772 7.50722 7.28625 7.66232 7.74672 7.97391C7.95475 8.16059 8.1159 8.39364 8.21712 8.65419C8.31834 8.91473 8.35678 9.19545 8.32934 9.47362C8.35851 9.7702 8.31787 10.0695 8.21066 10.3476Z" fill="white"/>
</svg>
