<svg width="18" height="17" viewBox="0 0 18 17" fill="none" xmlns="http://www.w3.org/2000/svg">
<path opacity="0.3" d="M0 1.97499C0 1.40259 0.202708 0.930366 0.608108 0.558324C1.01351 0.186265 1.54055 0.000244141 2.18919 0.000244141C2.82626 0.000244141 3.34169 0.183397 3.73552 0.549738C4.14092 0.927515 4.34363 1.41976 4.34363 2.0265C4.34363 2.576 4.14672 3.0339 3.7529 3.40024C3.3475 3.77802 2.81467 3.9669 2.15444 3.9669H2.13707C1.49999 3.9669 0.984562 3.77802 0.590734 3.40024C0.196905 3.02246 0 2.54737 0 1.97499ZM0.225869 17.0002V5.52953H4.08301V17.0002H0.225869ZM6.22008 17.0002H10.0772V10.5952C10.0772 10.1945 10.1236 9.8854 10.2162 9.6679C10.3784 9.27867 10.6245 8.94954 10.9546 8.68053C11.2847 8.4115 11.6988 8.277 12.1969 8.277C13.4942 8.277 14.1429 9.1413 14.1429 10.8699V17.0002H18V10.4235C18 8.72918 17.5946 7.44417 16.7838 6.56842C15.973 5.69266 14.9016 5.25478 13.5695 5.25478C12.0753 5.25478 10.9112 5.89013 10.0772 7.16084V7.19518H10.0598L10.0772 7.16084V5.52953H6.22008C6.24324 5.89585 6.25483 7.0349 6.25483 8.94669C6.25483 10.8585 6.24324 13.543 6.22008 17.0002Z" fill="white"/>
</svg>
