<svg width="18" height="15" viewBox="0 0 18 15" fill="none" xmlns="http://www.w3.org/2000/svg">
<path opacity="0.3" d="M17.5417 1.71084C16.8824 1.99685 16.1852 2.18592 15.4718 2.27217C16.2244 1.82251 16.7885 1.11511 17.0593 0.281193C16.352 0.702249 15.5777 0.998908 14.7701 1.15828C14.2303 0.572887 13.5114 0.18322 12.7263 0.05039C11.9412 -0.0824399 11.1342 0.0490805 10.4319 0.424324C9.72952 0.799568 9.17161 1.39731 8.8456 2.1238C8.5196 2.8503 8.44394 3.66445 8.63051 4.43857C7.20036 4.36623 5.80142 3.99385 4.52457 3.3456C3.24773 2.69736 2.12153 1.78775 1.21915 0.675881C0.90264 1.22859 0.736329 1.85453 0.73675 2.49144C0.735628 3.08293 0.880783 3.66552 1.15929 4.18734C1.4378 4.70916 1.84102 5.15402 2.33304 5.4823C1.76116 5.46674 1.2015 5.31329 0.701667 5.03499V5.07884C0.705953 5.90759 0.996362 6.70942 1.52377 7.3487C2.05118 7.98799 2.78321 8.42548 3.59604 8.58718C3.28315 8.6824 2.95829 8.7326 2.63125 8.73628C2.40487 8.73364 2.17905 8.71311 1.9559 8.67489C2.18737 9.38779 2.63531 10.0108 3.23738 10.4573C3.83946 10.9037 4.56573 11.1514 5.31513 11.1658C4.04967 12.1615 2.48731 12.705 0.877084 12.7095C0.583906 12.7104 0.29096 12.6929 0 12.6568C1.64403 13.7183 3.55992 14.2818 5.51686 14.2795C6.8673 14.2935 8.20699 14.0383 9.4577 13.5287C10.7084 13.0192 11.845 12.2656 12.8012 11.3118C13.7574 10.3581 14.514 9.22341 15.0267 7.97401C15.5394 6.72462 15.7981 5.38558 15.7875 4.03511C15.7875 3.88601 15.7875 3.72813 15.7875 3.57026C16.4758 3.057 17.0693 2.42779 17.5417 1.71084Z" fill="white"/>
</svg>
