<svg width="95" height="22" viewBox="0 0 95 22" fill="none" xmlns="http://www.w3.org/2000/svg">
<g opacity="0.3" clip-path="url(#clip0_205_23)">
<path d="M26.6152 4.67636L31.1922 4.67605C35.1118 4.67579 37.5901 7.20436 37.5904 11.1492C37.5906 15.094 35.1253 17.6229 31.1931 17.6232L26.6161 17.6235L26.6152 4.67636ZM31.0918 15.2588C33.5573 15.2587 34.9101 13.6781 34.9099 11.162C34.9098 8.63328 33.5568 7.05291 31.0913 7.05307L29.2959 7.05319L29.2964 15.2589L31.0918 15.2588Z" fill="white"/>
<path d="M44.5315 10.7821C44.1775 10.5671 43.7097 10.466 43.2166 10.4661C42.3315 10.4661 41.6109 10.934 41.4213 11.7938L41.4217 17.6351L38.8171 17.6353L38.8164 8.20313L41.4337 8.20296L41.4337 9.12594C41.8383 8.4558 42.6095 7.98794 43.5451 7.98787C43.9877 7.98784 44.3923 8.07632 44.5314 8.15217L44.5315 10.7821Z" fill="white"/>
<rect x="-23.5002" y="-16.5" width="159" height="59" rx="5.5" stroke="#1B1B1B"/>
<path d="M49.754 17.8495C47.0103 17.8497 45.1263 15.8269 45.1261 12.9315C45.1259 10.0234 47.0096 7.98765 49.7533 7.98747C52.497 7.98728 54.3684 10.0101 54.3686 12.9308C54.3688 15.8262 52.4977 17.8494 49.754 17.8495ZM49.7535 10.2128C48.4385 10.2128 47.7306 11.3508 47.7307 12.9313C47.7308 14.4865 48.4515 15.637 49.7538 15.6369C51.0561 15.6368 51.7767 14.4988 51.7766 12.931C51.7765 11.3506 51.0558 10.2127 49.7535 10.2128Z" fill="white"/>
<path d="M58.1115 21.1237L55.4943 21.1239L55.4934 8.20202L58.1107 8.20185L58.1107 8.98576C58.5279 8.47998 59.4635 7.99946 60.475 7.99939C63.2187 7.99921 64.774 10.275 64.7742 12.9428C64.7744 15.598 63.2194 17.8613 60.4757 17.8615C59.4642 17.8615 58.5285 17.3811 58.1112 16.8754L58.1115 21.1237ZM58.1111 14.4731C58.4272 15.1306 59.1227 15.573 59.8813 15.573C61.2974 15.5729 62.1444 14.4349 62.1443 12.9303C62.1442 11.4131 61.297 10.2752 59.8809 10.2753C59.097 10.2753 58.4269 10.7432 58.1109 11.3754L58.1111 14.4731Z" fill="white"/>
<path d="M68.5424 17.6333L65.8998 17.6335L65.8989 3.91512L68.5414 3.91494L68.5418 8.98505C68.959 8.47928 69.8946 7.99876 70.9061 7.99869C73.6498 7.9985 75.1925 10.2363 75.1926 12.9421C75.1928 15.6478 73.6504 17.8606 70.9068 17.8608C69.8953 17.8608 68.9596 17.3804 68.5423 16.8747L68.5424 17.6333ZM68.5422 14.4724C68.833 15.1299 69.5284 15.5723 70.3123 15.5723C71.7284 15.5722 72.5755 14.4342 72.5754 12.9296C72.5753 11.4124 71.7281 10.2745 70.312 10.2746C69.5534 10.2746 68.8327 10.7425 68.542 11.3747L68.5422 14.4724Z" fill="white"/>
<path d="M80.7562 17.8727C78.0125 17.8729 76.1285 15.8501 76.1283 12.9547C76.1281 10.0466 78.0118 8.01084 80.7555 8.01066C83.4992 8.01048 85.3706 10.0333 85.3708 12.954C85.371 15.8494 83.4872 17.8725 80.7562 17.8727ZM80.7557 10.2359C79.4407 10.236 78.7328 11.374 78.7329 12.9545C78.733 14.5096 79.4537 15.6602 80.756 15.6601C82.0583 15.66 82.7789 14.522 82.7788 12.9542C82.7787 11.3737 82.058 10.2359 80.7557 10.2359Z" fill="white"/>
<path d="M91.2501 12.764L94.6895 17.6442L91.7941 17.6444L89.7709 14.6859L87.7228 17.6447L84.9791 17.6449L88.38 12.8274L85.1808 8.21266L88.0762 8.21247L89.8971 10.8928L91.7429 8.21222L94.4866 8.21204L91.2501 12.764Z" fill="white"/>
<path d="M6.94141 0.239762L0.126759 4.62758L4.84311 8.43301L11.6957 4.19691L6.94141 0.239762Z" fill="white"/>
<path d="M0.127203 12.1506L6.94244 16.626L11.6962 12.6682L4.84304 8.433L0.127203 12.1506Z" fill="white"/>
<path d="M11.6963 12.6682L16.4506 16.6253L23.24 12.1996L18.5363 8.43208L11.6963 12.6682Z" fill="white"/>
<path d="M23.2393 4.66395L16.4493 0.239122L11.6956 4.19691L18.5361 8.43209L23.2393 4.66395Z" fill="white"/>
<path d="M11.709 13.5153L6.94258 17.4731L4.89422 16.1456L4.89432 17.6376L11.7095 21.7211L18.5116 17.6367L18.5115 16.1447L16.4759 17.4725L11.709 13.5153Z" fill="white"/>
</g>
<defs>
<clipPath id="clip0_205_23">
<rect width="94.8276" height="22" fill="white"/>
</clipPath>
</defs>
</svg>
