<svg width="88" height="14" viewBox="0 0 88 14" fill="none" xmlns="http://www.w3.org/2000/svg">
<g opacity="0.3">
<path d="M6.1296 3.83049L7.52264 3.83039C8.39329 3.83033 9.29877 4.0044 9.29884 5.01436C9.2989 5.88501 8.74173 6.51191 7.10491 6.51202L5.57256 6.51212L6.1296 3.83049ZM0.000890672 13.6866L4.0407 13.6864L4.87626 9.68133L7.62751 9.68115C11.1101 9.68091 13.3736 7.38225 13.3735 4.70065C13.3733 1.77527 11.806 0.417161 9.36819 0.417325L2.78608 0.417766L0.000890672 13.6866Z" fill="white"/>
<path d="M18.3539 4.97893L18.8418 8.94906L16.2995 8.94923L18.3539 4.97893ZM9.6132 13.686L13.7923 13.6857L14.8021 11.8051L19.1206 11.8048L19.3296 13.6854L23.3346 13.6851L21.3138 0.416527L17.274 0.416798L9.6132 13.686Z" fill="white"/>
<path d="M25.0406 8.80932L22.1843 0.416458L26.2938 0.416182L27.5479 5.36139L30.7863 0.415881L35.5923 0.415558L29.1153 8.77422L28.1056 13.6848L24.031 13.685L25.0406 8.80932Z" fill="white"/>
<path d="M45.3441 8.63376C45.1004 9.99199 44.0559 13.997 38.5185 13.9974C34.6529 13.9977 32.8069 11.4903 32.8067 7.93808C32.8064 3.65449 35.4878 0.0672333 40.0151 0.0669294C42.9753 0.0667307 45.6222 1.35511 45.6921 5.32527L41.8264 5.32553C41.8612 4.07179 41.2691 3.37531 40.0154 3.3754C37.7517 3.37555 36.916 5.98755 36.9161 7.86815C36.9162 8.98258 37.1949 10.6542 39.0755 10.6541C40.3641 10.654 41.0954 9.7833 41.3391 8.5992L45.3441 8.63376Z" fill="white"/>
<path d="M47.7117 0.414763L51.8212 0.414487L50.8463 5.01158L54.5727 5.01133L55.5475 0.414237L59.657 0.413961L56.8718 13.6828L52.7972 13.6831L53.8764 8.42432L50.1501 8.42457L49.036 13.6834L44.9613 13.6836L47.7117 0.414763Z" fill="white"/>
<path d="M60.736 0.413891L71.7062 0.413154L71.0099 3.82615L64.1144 3.82661L63.7662 5.46345L70.1742 5.46302L69.5127 8.63223L63.1047 8.63266L62.7566 10.2695L69.7914 10.269L69.0951 13.682L57.9508 13.6828L60.736 0.413891Z" fill="white"/>
<path d="M74.5283 6.64679L71.4632 0.413143L75.9209 0.412844L77.2097 3.86053L79.8562 0.41258L84.6971 0.412255L79.1601 6.64647L82.3994 13.6811L77.8024 13.6814L76.3395 9.98996L73.2402 13.6817L68.2253 13.6821L74.5283 6.64679Z" fill="white"/>
<path d="M85.2186 1.00427C85.2186 0.516702 85.5668 0.133592 86.0544 0.13356C86.5071 0.133529 86.8902 0.516589 86.8903 1.00415C86.8903 1.49172 86.5421 1.87483 86.0545 1.87486C85.6018 1.87489 85.2187 1.49183 85.2186 1.00427ZM85.0445 1.00428C85.0445 1.59632 85.4973 2.0142 86.0545 2.01416C86.6117 2.01413 87.0644 1.59618 87.0644 1.00414C87.0644 0.446926 86.6116 -0.00578147 86.0544 -0.00574406C85.4972 -0.00570666 85.0445 0.447061 85.0445 1.00428ZM85.6714 1.59628L85.8455 1.59626L85.8455 1.1087L86.0196 1.10869L86.3331 1.63106L86.5421 1.63104L86.1938 1.10868C86.3679 1.10867 86.5072 1.00418 86.5072 0.795223C86.5072 0.551441 86.3679 0.446972 86.0892 0.446991L85.6713 0.447019L85.6714 1.59628ZM85.8455 0.586311L86.0893 0.586295C86.2286 0.586286 86.333 0.621105 86.333 0.760409C86.3331 0.934538 86.1938 0.969374 86.0196 0.969385L85.8455 0.969397L85.8455 0.586311Z" fill="white"/>
</g>
</svg>
