<svg width="61" height="25" viewBox="0 0 61 25" fill="none" xmlns="http://www.w3.org/2000/svg">
<g opacity="0.3">
<path fill-rule="evenodd" clip-rule="evenodd" d="M60.081 12.9132C60.0808 8.64085 58.0111 5.26983 54.0558 5.2701C50.0839 5.27036 47.6809 8.64168 47.6812 12.8807C47.6815 17.904 50.5188 20.4406 54.5909 20.4403C56.5769 20.4402 58.0788 19.9894 59.2136 19.3552L59.2134 16.0174C58.0786 16.5849 56.7769 16.9355 55.1247 16.9356C53.5059 16.9357 52.0706 16.3684 51.8869 14.3991L60.0478 14.3985C60.0477 14.1816 60.0811 13.3137 60.081 12.9132ZM51.8366 11.3283C51.8365 9.44247 52.988 8.65802 54.0394 8.65795C55.0574 8.65788 56.1422 9.44218 56.1423 11.328L51.8366 11.3283Z" fill="white"/>
<path fill-rule="evenodd" clip-rule="evenodd" d="M41.2384 5.27091C39.6029 5.27102 38.5515 6.03878 37.9675 6.57287L37.7504 5.53817L34.0789 5.53842L34.0802 24.9977L38.2524 24.1129L38.2687 19.3899C38.8695 19.8238 39.7541 20.4412 41.2227 20.4411C44.21 20.4409 46.9302 18.0376 46.9298 12.7472C46.9128 7.90738 44.159 5.27072 41.2384 5.27091ZM40.2378 16.7696C39.2532 16.7697 38.6691 16.4193 38.2685 15.9854L38.2514 9.79381C38.6853 9.3098 39.286 8.97598 40.2373 8.97592C41.756 8.97582 42.8075 10.678 42.8077 12.8643C42.8078 15.1006 41.7732 16.7695 40.2378 16.7696Z" fill="white"/>
<path fill-rule="evenodd" clip-rule="evenodd" d="M28.3379 4.28716L32.5268 3.38568L32.5266 -0.00217327L28.3377 0.88262L28.3379 4.28716Z" fill="white"/>
<path d="M32.5271 5.55525L28.3381 5.55553L28.3391 20.1583L32.528 20.158L32.5271 5.55525Z" fill="white"/>
<path fill-rule="evenodd" clip-rule="evenodd" d="M23.849 6.79076L23.5819 5.55579L19.9771 5.55604L19.978 20.1588L24.1503 20.1586L24.1496 10.262C25.1342 8.97692 26.8031 9.21045 27.3204 9.39399L27.3202 5.55554C26.7861 5.35531 24.8335 4.98829 23.849 6.79076Z" fill="white"/>
<path fill-rule="evenodd" clip-rule="evenodd" d="M15.5043 1.93486L11.4323 2.80296L11.4165 16.1708C11.4166 18.6407 13.2692 20.4597 15.7392 20.4595C17.1077 20.4595 18.109 20.2091 18.6597 19.9086L18.6595 16.5208C18.1255 16.7378 15.4887 17.5056 15.4885 15.0357L15.4881 9.1111L18.659 9.11088L18.6588 5.55614L15.4879 5.55636L15.5043 1.93486Z" fill="white"/>
<path fill-rule="evenodd" clip-rule="evenodd" d="M4.22309 9.79609C4.22304 9.14523 4.75707 8.89486 5.64159 8.8948C6.90994 8.89471 8.5121 9.27845 9.78051 9.96261L9.78024 6.04072C8.39503 5.49007 7.02652 5.27321 5.64134 5.2733C2.25349 5.27353 0.000607029 7.04271 0.000805314 9.99665C0.00111451 14.6028 6.34285 13.868 6.34299 15.854C6.34304 16.6217 5.6755 16.8721 4.74092 16.8722C3.35574 16.8723 1.58668 16.305 0.184755 15.5374L0.185022 19.5093C1.73714 20.1768 3.30591 20.4604 4.74116 20.4603C8.21246 20.46 10.5989 18.7409 10.5987 15.7536C10.5816 10.7803 4.22321 11.6653 4.22309 9.79609Z" fill="white"/>
</g>
</svg>
